<mxfile host="app.diagrams.net" modified="2024-07-10T12:17:15.384Z" agent="Mozilla/5.0 (Macintosh; Intel Mac OS X 10_15_7) AppleWebKit/537.36 (KHTML, like Gecko) Chrome/126.0.0.0 Safari/537.36" version="24.6.4" etag="r6gkBUog0XeR_C99f5z7" type="github">
  <diagram name="Seite-1" id="iwHSnULjuofBPUNOTLQj">
    <mxGraphModel>
      <root>
        <mxCell id="0" />
        <mxCell id="1" parent="0" />
      </root>
    </mxGraphModel>
  </diagram>
</mxfile>
